<svg width="56" height="56" viewBox="0 0 56 56" fill="none" xmlns="http://www.w3.org/2000/svg">
<g filter="url(#filter0_d_2288_11)">
<path d="M0 16C0 8.45753 0 4.68629 2.34315 2.34315C4.68629 0 8.45753 0 16 0H40C47.5425 0 51.3137 0 53.6569 2.34315C56 4.68629 56 8.45753 56 16V28V40C56 47.5425 56 51.3137 53.6569 53.6569C51.3137 56 47.5425 56 40 56H16C8.45753 56 4.68629 56 2.34315 53.6569C0 51.3137 0 47.5425 0 40V16Z" fill="url(#paint0_linear_2288_11)"/>
<path fill-rule="evenodd" clip-rule="evenodd" d="M0 26.0636V40C0 47.5425 0 51.3137 2.34315 53.6568C4.68629 56 8.45753 56 16 56H40C47.5425 56 51.3137 56 53.6569 53.6568C56 51.3137 56 47.5425 56 40V28V25C48.8462 27.2057 38.0626 28.6099 26 28.6099C16.0114 28.6099 6.89983 27.647 0 26.0636Z" fill="url(#paint1_linear_2288_11)"/>
<g filter="url(#filter1_ii_2288_11)">
<path d="M0 16C0 8.45753 0 4.68629 2.34315 2.34315C4.68629 0 8.45753 0 16 0H40C47.5425 0 51.3137 0 53.6569 2.34315C56 4.68629 56 8.45753 56 16V28V40C56 47.5425 56 51.3137 53.6569 53.6569C51.3137 56 47.5425 56 40 56H16C8.45753 56 4.68629 56 2.34315 53.6569C0 51.3137 0 47.5425 0 40V16Z" fill="white" fill-opacity="0.01"/>
</g>
<path d="M40 -0.5H16H15.9602C12.2226 -0.500004 9.36693 -0.500007 7.1552 -0.202648C4.92125 0.0976993 3.26955 0.709635 1.98959 1.98959C0.709635 3.26955 0.0976993 4.92125 -0.202648 7.1552C-0.500007 9.36692 -0.500004 12.2226 -0.5 15.9602V16V40V40.0398C-0.500004 43.7774 -0.500007 46.6331 -0.202648 48.8448C0.0976993 51.0788 0.709635 52.7304 1.98959 54.0104C3.26955 55.2904 4.92125 55.9023 7.1552 56.2026C9.36693 56.5 12.2226 56.5 15.9602 56.5H16H40H40.0398C43.7773 56.5 46.6331 56.5 48.8448 56.2026C51.0788 55.9023 52.7304 55.2904 54.0104 54.0104C55.2904 52.7304 55.9023 51.0788 56.2026 48.8448C56.5 46.6331 56.5 43.7773 56.5 40.0398V40V28V16V15.9602C56.5 12.2226 56.5 9.36694 56.2026 7.1552C55.9023 4.92125 55.2904 3.26955 54.0104 1.98959C52.7304 0.709635 51.0788 0.0976993 48.8448 -0.202648C46.6331 -0.500007 43.7774 -0.500004 40.0398 -0.5H40Z" stroke="#A2ADB8"/>
</g>
<defs>
<filter id="filter0_d_2288_11" x="-3" y="-2" width="64" height="64" filterUnits="userSpaceOnUse" color-interpolation-filters="sRGB">
<feFlood flood-opacity="0" result="BackgroundImageFix"/>
<feColorMatrix in="SourceAlpha" type="matrix" values="0 0 0 0 0 0 0 0 0 0 0 0 0 0 0 0 0 0 127 0" result="hardAlpha"/>
<feOffset dx="1" dy="2"/>
<feGaussianBlur stdDeviation="1.5"/>
<feComposite in2="hardAlpha" operator="out"/>
<feColorMatrix type="matrix" values="0 0 0 0 0 0 0 0 0 0 0 0 0 0 0 0 0 0 0.4 0"/>
<feBlend mode="normal" in2="BackgroundImageFix" result="effect1_dropShadow_2288_11"/>
<feBlend mode="normal" in="SourceGraphic" in2="effect1_dropShadow_2288_11" result="shape"/>
</filter>
<filter id="filter1_ii_2288_11" x="-1" y="-1" width="58" height="58" filterUnits="userSpaceOnUse" color-interpolation-filters="sRGB">
<feFlood flood-opacity="0" result="BackgroundImageFix"/>
<feBlend mode="normal" in="SourceGraphic" in2="BackgroundImageFix" result="shape"/>
<feColorMatrix in="SourceAlpha" type="matrix" values="0 0 0 0 0 0 0 0 0 0 0 0 0 0 0 0 0 0 127 0" result="hardAlpha"/>
<feOffset dx="-2" dy="-2"/>
<feComposite in2="hardAlpha" operator="arithmetic" k2="-1" k3="1"/>
<feColorMatrix type="matrix" values="0 0 0 0 0.380392 0 0 0 0 0.827451 0 0 0 0 0.956863 0 0 0 0.8 0"/>
<feBlend mode="normal" in2="shape" result="effect1_innerShadow_2288_11"/>
<feColorMatrix in="SourceAlpha" type="matrix" values="0 0 0 0 0 0 0 0 0 0 0 0 0 0 0 0 0 0 127 0" result="hardAlpha"/>
<feOffset dx="2" dy="2"/>
<feComposite in2="hardAlpha" operator="arithmetic" k2="-1" k3="1"/>
<feColorMatrix type="matrix" values="0 0 0 0 1 0 0 0 0 1 0 0 0 0 1 0 0 0 0.55 0"/>
<feBlend mode="normal" in2="effect1_innerShadow_2288_11" result="effect2_innerShadow_2288_11"/>
</filter>
<linearGradient id="paint0_linear_2288_11" x1="28" y1="0" x2="28" y2="56" gradientUnits="userSpaceOnUse">
<stop stop-color="#DAEAF9"/>
<stop offset="0.260417" stop-color="#DCE5ED"/>
<stop offset="0.505208" stop-color="#C7D3DC"/>
<stop offset="0.720142" stop-color="white"/>
<stop offset="1" stop-color="white"/>
</linearGradient>
<linearGradient id="paint1_linear_2288_11" x1="28" y1="25" x2="28" y2="55.6099" gradientUnits="userSpaceOnUse">
<stop stop-color="#B5C5D1"/>
<stop offset="0.500953" stop-color="#B6CBD9"/>
<stop offset="1" stop-color="#B8D5E7"/>
</linearGradient>
</defs>
</svg>
